<?xml version="1.0" standalone="no"?>
<!DOCTYPE svg PUBLIC "-//W3C//DTD SVG 20010904//EN"
 "http://www.w3.org/TR/2001/REC-SVG-20010904/DTD/svg10.dtd">
<svg version="1.0" xmlns="http://www.w3.org/2000/svg"
 width="880.000000pt" height="880.000000pt" viewBox="0 0 880.000000 880.000000"
 preserveAspectRatio="xMidYMid meet">
<metadata>
Created by potrace 1.11, written by Peter Selinger 2001-2013
</metadata>
<g transform="translate(0.000000,880.000000) scale(0.100000,-0.100000)"
fill="#000000" stroke="none">
<path d="M4077 8383 c-2 -2 -35 -5 -73 -8 -125 -8 -251 -20 -304 -30 -14 -2
-46 -7 -72 -10 -40 -5 -181 -30 -280 -49 -16 -4 -38 -8 -50 -10 -44 -9 -70
-15 -88 -21 -10 -3 -27 -7 -37 -10 -64 -13 -328 -99 -403 -132 -19 -8 -48 -21
-65 -28 -79 -35 -150 -71 -153 -77 -2 -5 -12 -8 -23 -8 -10 0 -19 -4 -19 -9 0
-5 -8 -12 -18 -15 -59 -19 -222 -144 -332 -257 -102 -104 -106 -107 -162 -183
-20 -28 -42 -56 -48 -63 -5 -7 -10 -14 -10 -17 0 -3 -11 -21 -24 -41 -74 -109
-206 -408 -242 -547 -1 -5 -2 -9 -4 -10 -1 -2 -3 -10 -5 -18 -2 -8 -13 -52
-24 -97 -12 -45 -28 -117 -36 -160 -8 -43 -17 -89 -20 -103 -3 -14 -7 -45 -10
-70 -3 -25 -8 -55 -10 -67 -3 -12 -8 -51 -11 -85 -3 -35 -7 -79 -9 -98 -23
-210 -22 -758 0 -975 3 -22 7 -119 10 -215 6 -222 12 -341 19 -410 4 -30 8
-76 11 -102 6 -59 16 -144 21 -178 2 -14 6 -41 9 -60 2 -19 7 -46 10 -60 2
-13 7 -40 10 -60 3 -20 8 -47 11 -60 3 -14 7 -38 9 -55 8 -56 16 -90 25 -99 5
-5 6 -14 4 -21 -3 -7 0 -33 7 -56 14 -50 15 -55 22 -89 3 -14 19 -79 37 -145
18 -66 34 -131 37 -145 2 -14 8 -34 13 -45 8 -19 42 -129 46 -150 1 -5 23 -68
48 -140 25 -71 52 -150 61 -175 9 -25 19 -54 24 -65 31 -72 41 -101 39 -105
-1 -3 5 -18 14 -35 8 -16 20 -41 26 -55 5 -14 23 -54 40 -90 16 -36 35 -81 42
-100 8 -19 19 -42 27 -51 7 -8 13 -19 13 -23 0 -12 85 -181 93 -184 4 -2 7
-12 7 -23 0 -10 5 -19 11 -19 5 0 8 -4 4 -9 -3 -5 -1 -12 4 -15 5 -3 18 -24
29 -45 70 -135 225 -384 325 -524 25 -35 23 -32 109 -142 34 -44 66 -84 70
-90 52 -67 301 -324 369 -380 101 -84 232 -180 304 -221 204 -117 373 -185
525 -210 14 -3 32 -7 40 -10 48 -17 265 -23 375 -11 79 9 109 15 175 33 30 8
64 17 75 19 18 4 38 11 90 31 11 4 22 8 25 9 3 1 19 7 35 14 17 7 32 13 35 13
23 5 298 163 310 178 3 3 21 17 40 30 47 33 57 41 174 142 111 96 204 189 314
318 96 111 107 125 134 163 12 18 26 37 31 42 4 6 25 35 47 65 22 30 43 60 47
65 28 36 123 187 123 195 0 5 5 10 10 10 6 0 10 7 10 15 0 8 5 15 10 15 6 0
10 4 10 8 0 4 38 75 85 157 47 83 85 154 85 158 0 5 9 22 21 38 11 16 18 29
15 29 -4 0 6 19 21 43 14 23 26 43 24 45 -1 1 14 35 34 76 19 40 35 78 35 85
0 6 4 11 8 11 5 0 9 6 9 13 0 6 9 32 21 57 11 25 20 49 20 54 0 5 4 12 9 15 4
3 14 22 21 41 7 19 40 107 74 195 33 87 61 166 63 175 2 8 13 39 24 68 11 29
20 54 20 55 0 1 2 9 5 17 32 102 58 189 81 280 3 8 16 58 30 110 14 52 27 108
30 123 3 16 14 66 25 112 11 46 22 98 25 117 3 18 10 51 15 73 5 22 11 60 15
85 3 25 8 52 10 60 2 8 7 39 10 69 4 30 11 63 15 75 9 21 9 21 9 -1 1 -13 1
-25 1 -28 -1 -16 33 -65 44 -65 13 0 28 44 40 120 3 14 5 25 6 25 1 0 4 18 6
40 7 56 10 74 19 120 5 22 9 47 10 55 1 8 7 35 14 59 10 35 21 169 22 276 1
32 -12 370 -16 420 -9 130 -16 232 -21 280 -2 28 -6 73 -9 100 -11 128 -22
234 -31 305 -4 25 -7 62 -8 82 0 21 -4 38 -8 38 -4 0 -5 8 -3 18 2 10 0 38 -5
63 -4 24 -11 67 -14 94 -3 28 -13 91 -21 140 -9 50 -18 101 -20 115 -1 14 -4
25 -5 25 -2 0 -3 11 -5 25 -1 14 -8 52 -15 85 -7 33 -14 67 -15 75 -1 8 -12
57 -25 108 -12 51 -23 99 -24 105 -6 28 -52 187 -64 217 -3 8 -6 17 -7 20 -17
65 -108 308 -141 378 -19 41 -34 78 -34 83 0 5 -4 9 -10 9 -5 0 -10 5 -10 11
0 21 -95 152 -155 213 -60 62 -144 126 -164 126 -6 0 -11 4 -11 8 0 5 -16 14
-35 22 -19 8 -35 17 -35 22 0 4 -8 8 -18 8 -10 0 -22 4 -28 8 -5 5 -38 19 -74
32 -36 13 -76 28 -90 33 -14 6 -29 11 -35 13 -5 1 -41 12 -80 24 -62 19 -200
50 -288 65 -18 3 -39 8 -47 10 -8 2 -37 6 -65 10 -76 8 -107 13 -141 19 -43 8
-98 15 -174 22 -36 3 -76 7 -90 10 -14 2 -63 7 -110 10 -47 3 -107 8 -135 11
-61 6 -793 12 -798 6z"/>
</g>
</svg>
